<?xml version="1.0" encoding="utf-8"?>
<!-- Generator: Adobe Illustrator 22.0.0, SVG Export Plug-In . SVG Version: 6.00 Build 0)  -->
<svg version="1.1" id="Layer_1" xmlns="http://www.w3.org/2000/svg" xmlns:xlink="http://www.w3.org/1999/xlink" x="0px" y="0px"
	 viewBox="0 0 186.5 186.5" style="enable-background:new 0 0 186.5 186.5;" xml:space="preserve">
<style type="text/css">
	.st0{fill:#FFFFFF;}
</style>
<g>
	<path class="st0" d="M93.2,0C41.8,0,0,41.8,0,93.2s41.8,93.2,93.2,93.2s93.2-41.8,93.2-93.2S144.7,0,93.2,0z M93.2,176
		c-45.6,0-82.8-37.1-82.8-82.8s37.1-82.8,82.8-82.8S176,47.6,176,93.2S138.9,176,93.2,176z"/>
	<path class="st0" d="M116.1,78.5l23-26l-8.2-7.2L93.4,87.7c0-0.1,0-0.2,0-0.4V55.9H82.5v31.7c0,8.5-4,13.1-12.5,13.1
		c-8.5,0-12.5-4.6-12.5-13.1V55.9H46.5v31.5c0,14.9,8.7,24.2,23.4,24.2c0.8,0,1.7,0,2.5-0.1l-19.9,22.6l8.1,7.2l44.5-50.4v37.8H140
		V118h-23.9V78.5z"/>
</g>
</svg>
